<?xml version="1.0" encoding="UTF-8"?>
<svg width="64" height="64" viewBox="0 0 64 64" fill="none" xmlns="http://www.w3.org/2000/svg">
  <rect width="64" height="64" rx="16" fill="#F3E5DC"/>
  <path d="M44 10H42V8C42 6.9 41.1 6 40 6C38.9 6 38 6.9 38 8V10H26V8C26 6.9 25.1 6 24 6C22.9 6 22 6.9 22 8V10H20C17.8 10 16 11.8 16 14V50C16 52.2 17.8 54 20 54H44C46.2 54 48 52.2 48 50V14C48 11.8 46.2 10 44 10ZM44 48H20C19.4 48 19 47.6 19 47V24H45V47C45 47.6 44.6 48 44 48ZM28 34H24V30H28V34ZM34 34H30V30H34V34ZM40 34H36V30H40V34ZM28 40H24V36H28V40ZM34 40H30V36H34V40ZM40 40H36V36H40V40Z" fill="#8B4513"/>
</svg>
