<svg width="200" height="50" viewBox="0 0 200 50" fill="none" xmlns="http://www.w3.org/2000/svg">
  <path d="M18.5 10C13.8056 10 10 13.8056 10 18.5V31.5C10 36.1944 13.8056 40 18.5 40H31.5C36.1944 40 40 36.1944 40 31.5V18.5C40 13.8056 36.1944 10 31.5 10H18.5Z" fill="white"/>
  <path d="M25 15L35 25L25 35L15 25L25 15Z" fill="#3498DB"/>
  <path d="M25 20C22.7909 20 21 21.7909 21 24C21 26.2091 22.7909 28 25 28C27.2091 28 29 26.2091 29 24C29 21.7909 27.2091 20 25 20Z" fill="white"/>
  <path d="M53.936 35V15.8H63.968C66.224 15.8 68.032 16.376 69.392 17.528C70.768 18.664 71.456 20.216 71.456 22.184C71.456 23.624 71.072 24.824 70.304 25.784C69.552 26.744 68.568 27.368 67.352 27.656C68.792 27.896 69.968 28.52 70.88 29.528C71.792 30.52 72.248 31.752 72.248 33.224C72.248 35.336 71.544 36.968 70.136 38.12C68.728 39.272 66.84 39.848 64.472 39.848H53.936V35ZM59.336 25.4H62.888C63.72 25.4 64.368 25.192 64.832 24.776C65.296 24.36 65.528 23.784 65.528 23.048C65.528 22.312 65.296 21.736 64.832 21.32C64.368 20.904 63.72 20.696 62.888 20.696H59.336V25.4ZM59.336 34.952H63.32C64.248 34.952 64.968 34.712 65.48 34.232C66.008 33.752 66.272 33.096 66.272 32.264C66.272 31.432 66.008 30.776 65.48 30.296C64.968 29.816 64.248 29.576 63.32 29.576H59.336V34.952Z" fill="white"/>
  <path d="M75.7279 39.848V15.8H81.1279V24.536H90.3439V15.8H95.7439V39.848H90.3439V29.432H81.1279V39.848H75.7279Z" fill="white"/>
  <path d="M100.087 39.848V15.8H105.487V39.848H100.087Z" fill="white"/>
  <path d="M109.486 39.848L117.79 15.8H124.262L132.566 39.848H126.83L125.342 35.288H116.71L115.222 39.848H109.486ZM118.294 30.728H123.758L121.026 22.28L118.294 30.728Z" fill="white"/>
  <path d="M135.178 39.848V15.8H140.578V24.536H149.794V15.8H155.194V39.848H149.794V29.432H140.578V39.848H135.178Z" fill="white"/>
  <path d="M159.538 39.848V15.8H174.866V20.696H164.938V25.4H173.978V30.296H164.938V34.952H174.866V39.848H159.538Z" fill="white"/>
  <path d="M178.273 39.848V15.8H183.673V34.952H193.601V39.848H178.273Z" fill="white"/>
  <path d="M196.216 39.848V35.768L205.432 20.696H196.456V15.8H212.024V19.88L202.808 34.952H212.024V39.848H196.216Z" fill="white"/>
</svg>
